<svg width="657" height="772" viewBox="0 0 657 772" fill="none" xmlns="http://www.w3.org/2000/svg">
<path d="M394.331 104.908C401.59 104.248 418.639 108.543 430.125 130.58C430.507 131.312 431.571 131.325 431.948 130.59C443.639 107.788 458.102 84.9311 503.035 112.272C503.921 112.811 505.08 111.805 504.658 110.858C497.501 94.8315 494.125 65.3682 527.588 50.4477C528.456 50.0606 528.406 48.7678 527.493 48.5014L520.02 46.3197C518.99 46.019 519.104 44.6246 520.174 44.5414C529.297 43.8323 541.295 44.5113 536.971 49.7569C531.748 56.0923 530.464 60.0978 531.737 66.712"  stroke="black" stroke-width="5" stroke-linecap="round"/>
<path fill-rule="evenodd" clip-rule="evenodd" d="M41.3906 350.379C39.3103 347.914 35.3367 350.014 36.2065 353.118L38.5026 361.311C39.1885 363.759 36.7076 365.894 34.386 364.854L26.6118 361.372C23.6675 360.053 21.0009 363.669 23.1333 366.089L28.7569 372.471C30.4386 374.379 29.1314 377.38 26.5882 377.449L18.0766 377.681C14.8515 377.768 14.0201 382.184 16.9923 383.44L24.8247 386.75C27.1689 387.741 27.2945 391.013 25.0331 392.177L17.4719 396.07C14.6043 397.547 15.7724 401.887 18.9953 401.731L27.4877 401.32C30.0297 401.196 31.5636 404.092 30.0316 406.121L24.9132 412.902C22.9708 415.475 25.9069 418.881 28.7424 417.344L36.2189 413.291C38.4551 412.079 41.0933 414.024 40.5946 416.517L38.9284 424.846C38.2961 428.007 42.4191 429.804 44.306 427.191L49.286 420.293C50.7739 418.232 53.9935 418.841 54.6272 421.303L56.7465 429.536C57.5501 432.658 62.0435 432.491 62.6082 429.318L64.0993 420.94C64.5445 418.438 67.7078 417.591 69.3481 419.534L74.839 426.04C76.9192 428.504 80.8929 426.404 80.023 423.3L77.727 415.107C77.0411 412.659 79.522 410.524 81.8435 411.564L89.6177 415.046C92.5621 416.365 95.2286 412.749 93.0962 410.329L87.4726 403.947C85.7909 402.039 87.0982 399.038 89.6413 398.969L98.1529 398.738C101.378 398.65 102.209 394.234 99.2373 392.978L91.4048 389.668C89.0606 388.678 88.935 385.405 91.1965 384.241L98.7576 380.348C101.625 378.871 100.457 374.531 97.2343 374.687L88.7418 375.099C86.1998 375.222 84.6659 372.326 86.198 370.297L91.3163 363.516C93.2587 360.943 90.3226 357.537 87.4872 359.074L80.0106 363.127C77.7745 364.339 75.1363 362.394 75.635 359.901L77.3012 351.572C77.9334 348.412 73.8105 346.614 71.9235 349.228L66.9435 356.125C65.4556 358.186 62.236 357.577 61.6023 355.115L59.4831 346.882C58.6795 343.76 54.1861 343.927 53.6213 347.1L52.1303 355.478C51.685 357.98 48.5217 358.827 46.8814 356.884L41.3906 350.379ZM44.0535 380.776C44.9111 382.395 44.2944 384.407 42.6657 385.268C41.0371 386.128 39.0242 385.505 38.1667 383.886C37.3092 382.268 37.9258 380.255 39.5545 379.395C41.1831 378.534 43.196 379.157 44.0535 380.776ZM48.4743 378.44C50.6262 382.502 49.0736 387.537 45.0065 389.686C40.9393 391.835 35.8978 390.284 33.7459 386.222C31.594 382.161 33.1466 377.126 37.2138 374.977C41.2809 372.827 46.3224 374.378 48.4743 378.44ZM77.4504 396.614C79.0791 395.753 79.6957 393.741 78.8382 392.122C77.9807 390.504 75.9678 389.881 74.3391 390.741C72.7105 391.602 72.0938 393.614 72.9514 395.233C73.8089 396.851 75.8218 397.474 77.4504 396.614ZM79.7911 401.032C83.8582 398.883 85.4109 393.848 83.259 389.786C81.1071 385.724 76.0656 384.174 71.9984 386.323C67.9313 388.472 66.3787 393.507 68.5306 397.569C70.6825 401.631 75.724 403.181 79.7911 401.032ZM59.7573 367.04C59.6752 365.663 58.4905 364.612 57.1114 364.693C55.7323 364.774 54.6809 365.957 54.7631 367.334L57.2475 408.968C57.3297 410.345 58.5143 411.396 59.8934 411.315C61.2726 411.234 62.3239 410.051 62.2417 408.674L59.7573 367.04Z" fill="black"/>
<path d="M654.052 240.86C654.052 266.544 633.011 287.408 607.002 287.408C580.993 287.408 559.952 266.544 559.952 240.86C559.952 215.176 580.993 194.312 607.002 194.312C633.011 194.312 654.052 215.176 654.052 240.86Z" stroke="black" stroke-width="5"/>
<path d="M607.441 262.756V269.763" stroke="black" stroke-width="5" stroke-linecap="round"/>
<path d="M607.441 218.964V211.957" stroke="black" stroke-width="5" stroke-linecap="round"/>
<path d="M619.719 221.939C616.604 220.393 611.874 218.947 607.452 218.964C602.123 218.984 597.24 221.129 596.167 227.786C594.752 236.565 605.478 239.717 611.868 242.889C620.7 247.274 620.62 255.494 615.303 259.454C612.911 261.235 610.196 262.213 607.452 262.582C603.442 263.122 599.372 262.362 596.167 260.916" stroke="black" stroke-width="5" stroke-linecap="round"/>
<path d="M343.904 135.758C336.304 110.505 337.691 59.1555 403.978 54.7419C469.753 50.3625 479.838 51.2375 490.801 52.9891" stroke="black" stroke-width="5" stroke-linecap="round"/>
<path d="M218.933 608.719C239.073 594.11 283.404 567.463 299.522 577.733C319.662 590.57 306.804 592.34 296.517 589.684" stroke="black" stroke-width="5" stroke-linecap="round"/>
<path d="M278.092 590.11C288.468 588.558 309.4 588.755 310.094 601.97C310.486 609.675 308.36 608.394 304.469 605.988C301.679 604.266 297.984 601.97 293.655 601.97H275.06" stroke="black" stroke-width="5" stroke-linecap="round"/>
<path d="M275.06 602.588H293.768C298.122 602.588 301.839 604.932 304.646 606.69C307.392 611.664 309.425 620.837 295.512 617.722C281.6 614.609 276.077 615.561 275.06 616.426" stroke="black" stroke-width="5" stroke-linecap="round"/>
<path d="M295.753 617.477C300.354 622.728 305.661 632.615 290.144 630.166C274.627 627.716 262.417 635.27 258.252 639.353C251.215 644.019 234.54 649.851 224.195 635.853" stroke="black" stroke-width="5" stroke-linecap="round"/>
<path d="M146.754 630.94C219.672 590.565 219.747 628.59 213.587 651.778C204.474 675.222 159.269 701.046 138.975 704.135C110.347 710.704 59.6565 702.919 85.9461 619.218C118.816 514.594 133.684 438.186 243.489 417.782" stroke="black" stroke-width="5" stroke-linecap="round"/>
<path d="M186.484 540.402C186.484 579.913 184.169 578.982 167.19 614.85" stroke="black" stroke-width="5" stroke-linecap="round"/>
<path d="M335.573 561.422V550.036" stroke="black" stroke-width="5" stroke-linecap="round"/>
<path d="M348.728 560.547L353.113 546.533" stroke="black" stroke-width="5" stroke-linecap="round"/>
<path d="M361.883 564.05L372.406 539.526" stroke="black" stroke-width="5" stroke-linecap="round"/>
<path d="M159.297 701.559C162.35 735.732 163.653 733.57 168.891 753.035C221.786 768.608 338.816 786.516 383.807 733.57" stroke="black" stroke-width="5" stroke-linecap="round"/>
<path d="M213.671 496.609L215.326 494.104C225.3 479.074 244.532 473.073 261.364 479.745C276.467 485.729 293.731 481.559 304.376 469.356L318.033 453.693" stroke="black" stroke-width="5" stroke-linecap="round"/>
<path d="M308.468 417.004C312.304 406.252 308.796 399.016 305.393 397.638C284.882 415.834 253.773 409.079 242.249 398.051C238.144 401.69 240.532 412.456 242.249 415.764C264.461 439.584 296.078 426.241 308.468 417.004Z" fill="black"/>
<path d="M368.912 240.191C359.353 274.556 354.559 277.601 340.655 292.825C340.655 277.78 338.063 252.525 338.063 242.007C292.503 242.007 254.059 223.403 240.515 214.099C241.009 245.648 211.434 266.276 211.434 266.276C211.434 266.276 215.674 279.017 218.101 307.532C220.049 330.346 214.461 325.937 211.434 320.881C202.715 292.728 188.422 300.252 182.354 307.532C108.013 186.687 222.341 163.338 244.155 165.562C260.636 151.486 283.618 140.456 299.769 138.838C358.05 133.003 384.418 184.471 368.912 240.191Z" fill="black"/>
<path d="M211.917 342.385C219.802 390.448 272.705 425.01 310.886 386.074C349.068 347.139 341.423 275.869 337.345 242.612" stroke="black" stroke-width="5" stroke-linecap="round"/>
<path d="M181.919 303.921C177.287 315.633 181.633 341.583 211.917 341.583" stroke="black" stroke-width="5" stroke-linecap="round"/>
<path d="M197.177 310.928C196.64 313.096 197.07 318.236 203.147 321.438" stroke="black" stroke-width="5" stroke-linecap="round"/>
<path d="M337.327 335.452C347.313 331.252 354.363 315.695 351.651 290.784" stroke="black" stroke-width="5" stroke-linecap="round"/>
<path d="M279.445 364.641C288.759 367.441 288.171 359.733 295.231 352.969" stroke="black" stroke-width="5" stroke-linecap="round"/>
<path d="M309.701 310.052C313.334 310.052 316.279 306.915 316.279 303.046C316.279 299.176 313.334 296.039 309.701 296.039C306.069 296.039 303.124 299.176 303.124 303.046C303.124 306.915 306.069 310.052 309.701 310.052Z" fill="black"/>
<path d="M251.82 310.052C255.937 310.052 259.274 307.308 259.274 303.922C259.274 300.535 255.937 297.791 251.82 297.791C247.703 297.791 244.365 300.535 244.365 303.922C244.365 307.308 247.703 310.052 251.82 310.052Z" fill="black"/>
<path d="M237.35 289.032C238.793 285.331 245.032 278.487 258.397 280.707" stroke="black" stroke-width="5" stroke-linecap="round"/>
<path d="M298.739 281.149C301.927 279.167 310.601 276.39 319.787 281.149" stroke="black" stroke-width="5" stroke-linecap="round"/>
<path d="M276.638 301.294C275.629 309.663 274.927 326.635 280.322 327.569" stroke="black" stroke-width="5" stroke-linecap="round"/>
<path d="M264.35 580.691L241.73 542.737C239.963 539.771 240.966 535.928 243.96 534.212C246.88 532.542 250.592 533.513 252.314 536.396L275.937 575.875" stroke="black" stroke-width="5" stroke-linecap="round"/>
<path d="M269.798 712.945C281.827 674.114 309.833 598.727 327.621 600.881C328.429 600.98 329.236 601.21 330.044 601.324L396.962 610.685" stroke="black" stroke-width="5" stroke-linecap="round"/>
<path d="M406.609 626.236L400.47 644.629" stroke="black" stroke-width="5" stroke-linecap="round"/>
<path d="M329.229 610.47C316.398 618.295 297.308 671.982 286.173 708.11C283.741 715.984 289.114 724.041 297.323 725.066L360.745 732.985C367.228 733.792 373.351 729.879 375.317 723.687L380.3 707.952" stroke="black" stroke-width="5" stroke-linecap="round"/>
<path d="M339.513 617.477C343.748 615.941 352.552 606.883 350.038 598.106C349.612 596.583 348.835 595.067 347.632 593.601C339.513 583.691 325.531 593.602 329.141 601.71" stroke="black" stroke-width="5" stroke-linecap="round"/>
<path d="M349.605 598.35C353.924 593.076 365.598 590.666 371.7 601.062C377.375 613.72 366.468 620.953 359.923 621.856" stroke="black" stroke-width="5" stroke-linecap="round"/>
<path d="M372.407 600.807C376.966 597.332 389.17 592.648 396.234 601.715C404.608 615.767 389.618 624.835 383.433 623.473" stroke="black" stroke-width="5" stroke-linecap="round"/>
<path d="M396.085 601.749C401.906 598.337 412.248 596.852 416.224 605.755C420.2 614.66 410.403 626.236 400.999 626.236" stroke="black" stroke-width="5" stroke-linecap="round"/>
<path d="M362.862 675.284C360.468 678.551 360.965 686.979 382.053 694.552" stroke="black" stroke-width="5" stroke-linecap="round"/>
<path d="M418.01 657.913C395.215 653.529 371.82 651.904 362.957 651.639C358.203 651.498 352.925 655.552 355.579 660.141C356.314 661.316 358.623 663.928 361.968 664.98C376.169 669.6 382.228 670.011 388.482 670.028" stroke="black" stroke-width="5" stroke-linecap="round"/>
<path d="M388.192 669.836C381.936 669.818 375.875 669.407 361.668 664.773C358.428 665.944 358.008 671.515 363.138 674.993C366.379 677.197 372.245 679.901 381.936 683.166" stroke="black" stroke-width="5" stroke-linecap="round"/>
<path d="M309.263 417.782C380.146 445.893 436.67 528.494 429.707 641.802C428.691 657.803 420.398 690.931 395.356 695.428" stroke="black" stroke-width="5" stroke-linecap="round"/>
<path d="M370.214 255.749C383.954 251.954 414.678 248.042 427.657 262.756C443.882 281.149 435.989 286.842 454.405 262.756C469.139 243.487 528.658 240.422 556.575 241.298" stroke="black" stroke-width="5" stroke-linecap="round"/>
<path d="M626.735 192.249C624.981 188.015 623.43 172.543 626.735 160.718C631.996 141.887 649.098 72.6958 630.681 57.3671C606.862 37.5422 590.339 46.8575 553.067 50.7985" stroke="black" stroke-width="5" stroke-linecap="round"/>
<path d="M405.322 158.119L407.016 213.096C407.033 213.667 407.525 214.108 408.095 214.062L433.272 212.034C433.809 211.991 434.215 211.53 434.191 210.992L431.653 154.803C431.627 154.216 431.104 153.779 430.522 153.856L406.189 157.097C405.681 157.164 405.306 157.606 405.322 158.119Z" stroke="black" stroke-width="5" stroke-linecap="round"/>
<path d="M451.774 144.285V212.237C451.774 212.943 452.486 213.427 453.143 213.167L476.601 203.876C476.969 203.73 477.217 203.38 477.232 202.984L479.364 146.35C479.384 145.815 478.978 145.358 478.443 145.316L452.853 143.288C452.272 143.242 451.774 143.701 451.774 144.285Z" stroke="black" stroke-width="5" stroke-linecap="round"/>
<path d="M501.325 128.437V203.95C501.325 204.502 501.772 204.95 502.325 204.95H527.511C528.064 204.95 528.511 204.502 528.511 203.95V128.437C528.511 127.884 528.064 127.437 527.511 127.437H502.325C501.772 127.437 501.325 127.884 501.325 128.437Z" stroke="black" stroke-width="5" stroke-linecap="round"/>
<path d="M553.922 113.049L551.784 202.284C551.768 202.956 552.407 203.452 553.054 203.27L579.165 195.936C579.558 195.826 579.844 195.487 579.888 195.081L588.899 111.946C588.965 111.339 588.477 110.816 587.868 110.839L554.884 112.074C554.356 112.094 553.934 112.521 553.922 113.049Z" stroke="black" stroke-width="5" stroke-linecap="round"/>
<path d="M174.631 102.475C174.018 112.498 173.601 133.011 176.837 134.882" stroke="black" stroke-width="5" stroke-linecap="round"/>
<path d="M157.543 122.62L190.869 118.24" stroke="black" stroke-width="5" stroke-linecap="round"/>
<path d="M435.098 396.762C434.485 406.785 434.068 427.298 437.304 429.168" stroke="black" stroke-width="5" stroke-linecap="round"/>
<path d="M418.01 416.906L451.336 412.527" stroke="black" stroke-width="5" stroke-linecap="round"/>
<path d="M571.615 491.354C571.615 493.235 569.952 495.665 565.58 497.773C561.385 499.795 555.414 501.116 548.682 501.116C541.951 501.116 535.98 499.795 531.784 497.773C527.412 495.665 525.75 493.235 525.75 491.354C525.75 489.473 527.412 487.043 531.784 484.936C535.98 482.913 541.951 481.592 548.682 481.592C555.414 481.592 561.385 482.913 565.58 484.936C569.952 487.043 571.615 489.473 571.615 491.354Z" stroke="black" stroke-width="5"/>
<path d="M525.003 491.792V507.544C525.003 507.831 525.12 508.1 525.339 508.286C531.89 513.836 549.016 522.015 567.976 512.375" stroke="black" stroke-width="5" stroke-linecap="round"/>
<path d="M88.3917 193.564C88.3917 195.445 86.7288 197.874 82.3569 199.982C78.1617 202.005 72.1904 203.326 65.4589 203.326C58.7275 203.326 52.7562 202.005 48.5609 199.982C44.1891 197.874 42.5261 195.445 42.5261 193.564C42.5261 191.683 44.1891 189.253 48.5609 187.145C52.7562 185.122 58.7275 183.802 65.4589 183.802C72.1904 183.802 78.1617 185.122 82.3569 187.145C86.7288 189.253 88.3917 191.683 88.3917 193.564Z" stroke="black" stroke-width="5"/>
<path d="M41.7803 194.002V209.754C41.7803 210.041 41.8972 210.31 42.1161 210.495C48.6672 216.045 65.7926 224.224 84.7529 214.584" stroke="black" stroke-width="5" stroke-linecap="round"/>
<path d="M536.4 346.301C535.084 347.65 532.194 348.23 527.591 346.694C523.173 345.219 517.974 342.004 513.152 337.314C508.331 332.623 504.977 327.516 503.385 323.145C501.727 318.59 502.232 315.689 503.548 314.34C504.865 312.991 507.755 312.41 512.357 313.946C516.775 315.421 521.975 318.636 526.796 323.327C531.617 328.017 534.971 333.124 536.563 337.496C538.221 342.051 537.716 344.951 536.4 346.301Z" stroke="black" stroke-width="5"/>
<path d="M502.707 314.132L491.7 325.416C491.5 325.621 491.396 325.895 491.423 326.18C492.238 334.721 498.79 352.514 519.107 358.823" stroke="black" stroke-width="5" stroke-linecap="round"/>
</svg>
