<svg width="1476" height="773" viewBox="0 0 1476 773" fill="none" xmlns="http://www.w3.org/2000/svg">
<path d="M434.884 500.02C451.11 506.574 489.079 510.498 508.733 500.02C540.239 483.224 546.794 378.424 550.447 355.047" stroke="black" stroke-width="5" stroke-linecap="round"/>
<path d="M1128 571C1069.82 539.579 1015.5 487.097 1001.72 446.058C995.31 424.255 979.671 395.399 1004.78 367.185C1029.89 338.97 1053 359.276 1061.42 372.956C1073.9 392.822 1108.69 437.099 1142 460.577" stroke="black" stroke-width="5" stroke-linecap="round"/>
<path d="M1371.23 583.347C1365.23 596.15 1356.84 629.827 1371.23 662.111" stroke="black" stroke-width="5" stroke-linecap="round"/>
<path d="M1284.03 421.509C1319.62 406.365 1342.97 431.958 1358.68 444.047C1386.29 468.226 1444.52 524.441 1461.44 553.455C1468.7 562.724 1497.11 606.045 1416.71 664.678" stroke="black" stroke-width="5" stroke-linecap="round"/>
<path d="M1436.04 674C1447.99 684.949 1463.31 708.878 1429 717" stroke="black" stroke-width="5" stroke-linecap="round"/>
<path d="M1437 697C1435.03 687.209 1426.91 668.744 1409.41 662.814C1406.53 661.84 1403.4 661.204 1400 661" stroke="black" stroke-width="5" stroke-linecap="round"/>
<path d="M1402.24 590C1379.43 604.556 1356.65 658.379 1389.29 695.145C1421.93 731.911 1434.7 735.134 1437 732.15" stroke="black" stroke-width="5" stroke-linecap="round"/>
<path d="M1313 518C1322.77 536.2 1352.45 573.08 1393 575" stroke="black" stroke-width="5" stroke-linecap="round"/>
<path d="M977.033 371.171C966.907 351.468 935.957 336.211 929.785 331.232C921.478 324.531 923.641 319.881 927.102 318.684C931.14 317.488 938.986 319.044 944.986 325.266C950.985 331.489 954.408 329.055 955.369 327.061C955.754 326.064 956.293 321.436 955.369 310.906C954.447 300.376 937.486 294.153 937.486 286.972C937.486 278.835 943.64 279.594 946.716 280.989C952.485 283.582 964.6 290.922 966.907 299.537C967.458 303.344 969.784 312.147 974.682 316.909" stroke="black" stroke-width="5" stroke-linecap="round"/>
<path d="M983.829 311.372C982.003 305.838 976.832 295.348 967.52 300.545" stroke="black" stroke-width="5" stroke-linecap="round"/>
<path d="M993.34 314.089C993.34 309.825 993.82 301.41 979.751 301.876" stroke="black" stroke-width="5" stroke-linecap="round"/>
<path d="M1016.45 339.913C1010.87 334.033 1004.58 325.541 1003.19 316.395C1002.23 310.101 995.045 305.725 990.625 305.943" stroke="black" stroke-width="5" stroke-linecap="round"/>
<path d="M693.061 344.001L666.217 448.18C665.615 450.517 668.9 451.724 669.953 449.552L720.468 345.373C721.112 344.044 720.145 342.5 718.669 342.5H694.998C694.085 342.5 693.289 343.117 693.061 344.001Z" fill="black"/>
<path d="M501.966 342.5H624.063C626.293 342.5 628.253 343.977 628.868 346.12L658.497 449.322C659.916 454.267 666.98 454.102 668.167 449.096L692.536 346.346C693.07 344.092 695.084 342.5 697.401 342.5H890.304" stroke="black" stroke-width="5" stroke-linecap="round"/>
<path d="M615.33 172.743H1008.73C1011.49 172.743 1013.73 174.982 1013.73 177.743V296.345" stroke="black" stroke-width="5" stroke-linecap="round"/>
<path d="M533.969 174.102H409.854C407.093 174.102 404.854 176.34 404.854 179.102V336.27C404.854 339.032 407.093 341.27 409.854 341.27H471.368" stroke="black" stroke-width="5" stroke-linecap="round"/>
<path d="M514.941 169.562C520.935 156.731 542.684 129.314 577.488 139.711C602.302 147.123 615.419 170.141 617.826 185.958C618.35 189.406 614.832 191.444 611.909 189.542C606.026 185.713 598.098 179.453 591.562 171.133" stroke="black" stroke-width="5" stroke-linecap="round"/>
<path d="M539.405 172.743C545.134 192.011 560.21 231.861 570.652 226.64C576.901 223.515 571.172 197.478 565.965 188.365" stroke="black" stroke-width="5" stroke-linecap="round"/>
<path d="M573.383 217.395C582.53 224.453 596.251 221.316 577.956 178.18" stroke="black" stroke-width="5" stroke-linecap="round"/>
<path d="M588.332 211.559C595.961 214.135 607.133 209.705 590.784 171.383" stroke="black" stroke-width="5" stroke-linecap="round"/>
<path d="M473.237 292.159C470.534 291.709 474.049 275.885 476.434 266.893C476.644 266.099 476.354 265.261 475.697 264.769L461.93 254.46C460.476 253.371 461.108 251.064 462.915 250.87C468.861 250.232 476.532 249.406 479.743 249.049C485.066 248.459 485.657 236.648 489.206 231.924C491.849 228.406 495.721 238.259 497.675 244.719C497.924 245.541 498.656 246.125 499.514 246.168L517.085 247.045C518.84 247.133 519.641 249.281 518.377 250.502C513.738 254.983 507.625 260.996 505.767 263.222C502.81 266.766 512.865 285.072 514.047 292.159C515.23 299.245 493.346 279.757 492.163 277.986C490.981 276.214 476.786 292.749 473.237 292.159Z" fill="black" fill-opacity="0.5"/>
<path d="M620.46 248.896L603.025 250.442C602.08 250.526 601.209 249.937 600.914 249.035C599.676 245.248 597.307 238.863 594.817 234.815C592.114 230.42 587.434 242.905 585.06 250.885C584.805 251.744 584.023 252.337 583.128 252.363C579.715 252.465 573.592 252.896 567.876 254.091C559.494 255.843 573.264 263.437 578.053 268.109C582.843 272.782 569.073 285.049 572.066 292.058C575.06 299.068 589.429 281.544 593.021 279.208C596.613 276.871 609.785 291.474 615.173 292.058C620.562 292.642 612.18 273.367 609.785 268.109C608.338 264.933 615.453 258.001 621.946 252.702C623.523 251.415 622.488 248.716 620.46 248.896Z" fill="black" fill-opacity="0.6"/>
<path d="M827.044 248.896L809.609 250.442C808.664 250.526 807.793 249.937 807.498 249.035C806.26 245.248 803.891 238.863 801.401 234.815C798.698 230.42 794.018 242.905 791.644 250.885C791.389 251.744 790.607 252.337 789.712 252.363C786.299 252.465 780.176 252.896 774.46 254.091C766.078 255.843 779.848 263.437 784.637 268.109C789.427 272.782 775.657 285.049 778.65 292.058C781.644 299.068 796.013 281.544 799.605 279.208C803.197 276.871 816.369 291.474 821.757 292.058C827.145 292.642 818.764 273.367 816.369 268.109C814.922 264.933 822.037 258.001 828.53 252.702C830.107 251.415 829.072 248.716 827.044 248.896Z" fill="black" fill-opacity="0.8"/>
<path d="M728.804 249.692C733.632 244.631 717.329 246.445 707.251 248.197C706.327 248.358 705.41 247.866 705.079 246.989C703.237 242.117 702.519 237.56 699.893 231.505C696.939 224.691 692.376 240.186 690.403 249.783C690.2 250.77 689.312 251.466 688.306 251.421C684.309 251.243 677.655 251.094 673.295 251.51C666.935 252.116 676.764 260.603 683.125 266.665C689.485 272.727 679.077 280.607 678.499 293.338C677.921 306.068 691.22 287.882 697.58 283.032C703.941 278.183 707.988 293.338 714.927 293.338C721.866 293.338 714.927 276.364 713.192 270.302C711.458 264.24 722.444 256.36 728.804 249.692Z" fill="black" fill-opacity="0.7"/>
<path d="M940.09 267.601C947.248 264.267 928.758 258.669 918.618 256.288C919.016 252.318 919.692 242.712 919.215 236.043C918.618 227.706 906.689 246.165 903.707 249.738C900.725 253.31 887.603 245.57 879.253 244.379C870.902 243.188 883.428 256.288 888.796 262.837C894.164 269.387 879.253 276.532 877.463 286.655C875.674 296.777 892.375 284.868 899.532 284.273C906.689 283.678 901.918 297.968 911.461 305.709C921.004 313.449 918.618 290.823 918.618 281.296C918.618 271.769 931.144 271.769 940.09 267.601Z" fill="black"/>
<path d="M941.697 223.031L945.775 206.722" stroke="black" stroke-width="5" stroke-linecap="round"/>
<path d="M948.493 233.903C954.263 230.415 968.321 222.541 978.393 218.953" stroke="black" stroke-width="5" stroke-linecap="round"/>
<path d="M958.007 242.058L974.316 246.135" stroke="black" stroke-width="5" stroke-linecap="round"/>
<path d="M276.956 546.494H998.779" stroke="#A0A0A0" stroke-width="5" stroke-linecap="round"/>
<path d="M3 546.494H172.488" stroke="#A0A0A0" stroke-width="5" stroke-linecap="round"/>
<path d="M24.7461 546.495V335.885C24.7461 327.601 31.4618 320.885 39.7461 320.885H122.601" stroke="#A0A0A0" stroke-width="5" stroke-linecap="round"/>
<path d="M707.477 694.503C698.59 679.495 726.956 677.307 742.25 678.088V688.876L791.994 694.503C767.524 700.757 716.363 709.511 707.477 694.503Z" fill="#A0A0A0"/>
<path d="M813.911 673.567L796.378 694.023" stroke="#A0A0A0" stroke-width="5" stroke-linecap="round"/>
<path d="M791.995 635.578L743.778 632.656" stroke="#A0A0A0" stroke-width="5" stroke-linecap="round"/>
<path d="M762.772 619.507L813.911 620.968" stroke="#A0A0A0" stroke-width="5" stroke-linecap="round"/>
<path d="M743.778 632.656L740.855 686.717" stroke="#A0A0A0" stroke-width="5" stroke-linecap="round"/>
<path d="M813.911 622.429V673.567" stroke="#A0A0A0" stroke-width="5" stroke-linecap="round"/>
<path d="M796.378 653.111V694.022" stroke="#A0A0A0" stroke-width="5" stroke-linecap="round"/>
<path d="M743.778 632.657L762.773 619.507" stroke="#A0A0A0" stroke-width="5" stroke-linecap="round"/>
<path d="M796.377 694.022L739.395 686.717" stroke="#A0A0A0" stroke-width="5" stroke-linecap="round"/>
<path d="M496.854 758.827C497.329 745.937 550.458 750.08 553.779 750.541V758.827L569.907 769.876C545.398 770.49 496.475 769.14 496.854 758.827Z" fill="#A0A0A0"/>
<path d="M628.351 758.311V708.634" stroke="#A0A0A0" stroke-width="5" stroke-linecap="round"/>
<path d="M587.44 770V715.939" stroke="#A0A0A0" stroke-width="5" stroke-linecap="round"/>
<path d="M552.374 758.311V704.25" stroke="#A0A0A0" stroke-width="5" stroke-linecap="round"/>
<path d="M552.374 704.251L590.363 694.023" stroke="#A0A0A0" stroke-width="5" stroke-linecap="round"/>
<path d="M628.351 708.634L587.44 715.939" stroke="#A0A0A0" stroke-width="5" stroke-linecap="round"/>
<path d="M587.44 769.999L628.351 758.311" stroke="#A0A0A0" stroke-width="5" stroke-linecap="round"/>
<path d="M628.351 708.634L590.362 694.023" stroke="#A0A0A0" stroke-width="5" stroke-linecap="round"/>
<path d="M552.374 704.25L587.44 715.939" stroke="#A0A0A0" stroke-width="5" stroke-linecap="round"/>
<path d="M369.739 653.628C370.222 640.738 424.414 644.881 427.801 645.341V653.628L444.252 664.677C419.253 665.291 369.351 663.94 369.739 653.628Z" fill="#A0A0A0"/>
<path d="M502.696 653.112V604.896" stroke="#A0A0A0" stroke-width="5" stroke-linecap="round"/>
<path d="M460.324 664.801V612.201" stroke="#A0A0A0" stroke-width="5" stroke-linecap="round"/>
<path d="M426.719 653.112V599.051" stroke="#A0A0A0" stroke-width="5" stroke-linecap="round"/>
<path d="M460.324 664.8L502.696 653.111" stroke="#A0A0A0" stroke-width="5" stroke-linecap="round"/>
<path d="M502.696 604.896L460.324 612.201" stroke="#A0A0A0" stroke-width="5" stroke-linecap="round"/>
<path d="M426.719 599.052L463.247 590.285" stroke="#A0A0A0" stroke-width="5" stroke-linecap="round"/>
<path d="M502.696 604.896L463.247 590.285" stroke="#A0A0A0" stroke-width="5" stroke-linecap="round"/>
<path d="M426.719 600.512L460.325 612.201" stroke="#A0A0A0" stroke-width="5" stroke-linecap="round"/>
<path d="M486.539 555.114L466.029 587.242C465.347 588.31 465.818 589.735 467.002 590.187L500.141 602.832C501.054 603.18 502.085 602.818 502.579 601.975L521.942 568.971C522.572 567.896 522.077 566.512 520.907 566.082L488.915 554.313C488.033 553.989 487.045 554.322 486.539 555.114Z" stroke="#A0A0A0" stroke-width="5"/>
<path d="M1132.11 223.965C1143.27 264.122 1148.87 267.68 1165.11 285.47C1165.11 267.889 1168.14 238.377 1168.14 226.087C1221.36 226.087 1266.26 204.347 1282.08 193.475C1281.51 230.341 1316.05 254.446 1316.05 254.446C1316.05 254.446 1311.1 269.335 1308.26 302.656C1305.99 329.314 1312.52 324.163 1316.05 318.254C1326.24 285.357 1342.93 294.149 1350.02 302.656C1436.86 161.443 1303.31 134.158 1277.83 136.758C1258.58 120.31 1231.74 107.42 1212.87 105.529C1144.79 98.7109 1113.99 158.853 1132.11 223.965Z" fill="black"/>
<path d="M1316 344.405C1306.7 400.481 1244.33 440.805 1199.31 395.378C1154.29 349.952 1163.31 266.802 1168.11 228" stroke="black" stroke-width="5" stroke-linecap="round"/>
<path d="M1349.26 297C1354.39 311.304 1349.57 343 1316 343" stroke="black" stroke-width="5" stroke-linecap="round"/>
<path d="M1333.7 308C1334.66 310.475 1333.89 316.343 1323 320" stroke="black" stroke-width="5" stroke-linecap="round"/>
<path d="M1169 337C1156.94 332.016 1148.43 313.558 1151.71 284" stroke="black" stroke-width="5" stroke-linecap="round"/>
<path d="M1236 371.23C1224.79 374.884 1225.5 364.826 1217 356" stroke="black" stroke-width="5" stroke-linecap="round"/>
<path d="M1201.5 305C1196.81 305 1193 301.642 1193 297.5C1193 293.358 1196.81 290 1201.5 290C1206.19 290 1210 293.358 1210 297.5C1210 301.642 1206.19 305 1201.5 305Z" fill="black"/>
<path d="M1268 305C1263.58 305 1260 302.314 1260 299C1260 295.686 1263.58 293 1268 293C1272.42 293 1276 295.686 1276 299C1276 302.314 1272.42 305 1268 305Z" fill="black"/>
<path d="M1286 282C1284.22 277.775 1276.51 269.96 1260 272.495" stroke="black" stroke-width="5" stroke-linecap="round"/>
<path d="M1214 272C1210.21 270.491 1199.91 268.378 1189 272" stroke="black" stroke-width="5" stroke-linecap="round"/>
<path d="M1241.04 297C1242.42 306.873 1243.38 326.898 1236 328" stroke="black" stroke-width="5" stroke-linecap="round"/>
<path d="M1194.36 434.41C1188.95 419.747 1193.9 409.88 1198.7 408C1227.64 432.815 1271.54 423.603 1287.8 408.563C1293.59 413.527 1290.22 428.208 1287.8 432.719C1256.46 465.204 1211.84 447.007 1194.36 434.41Z" fill="black"/>
<path d="M1192 433C1167.01 439.064 1123.08 486.064 1157.92 668" stroke="black" stroke-width="5" stroke-linecap="round"/>
<circle cx="370.467" cy="149.763" r="31.8359" stroke="black" stroke-width="5"/>
<circle cx="291.567" cy="149.763" r="31.8359" stroke="black" stroke-width="5"/>
<path d="M325.903 143.483C328.826 141.93 335.547 139.987 339.053 144.649" stroke="black" stroke-width="5" stroke-linecap="round"/>
<circle cx="293.028" cy="152.684" r="8.03605" fill="black"/>
<circle cx="364.622" cy="152.684" r="8.03605" fill="black"/>
<path d="M358.047 134.421C360.264 132.862 366.582 129.511 374.119 128.576" stroke="black" stroke-width="5" stroke-linecap="round"/>
<path d="M287.915 129.052C294.611 127.686 304.352 129.052 309.831 135.882" stroke="black" stroke-width="5" stroke-linecap="round"/>
<path d="M330.287 175.318C334.522 175.5 343.373 174.005 344.898 166.565" stroke="black" stroke-width="5" stroke-linecap="round"/>
<path d="M309.831 201.632C315.743 208.302 315.58 214.305 336.131 207.19" stroke="black" stroke-width="5" stroke-linecap="round"/>
<path d="M380.589 179.715C383.318 194.627 380.221 208.774 358.371 230.26C333.229 254.982 321.535 267.344 286.454 240.855" stroke="black" stroke-width="5" stroke-linecap="round"/>
<path d="M382.685 197.248C375.19 101.581 306.607 62.9644 272.45 55.381C252.307 58.6476 241.403 112.945 216.032 118.896C208.492 118.896 201.562 117.408 198.123 102.035C179.854 20.3677 233.609 17.0752 257.226 19.7974C393.072 -56.0351 465.832 103.914 382.685 197.248Z" fill="black"/>
<path d="M211.938 156.338C211.938 157.799 211.938 161.306 211.938 163.643" stroke="black" stroke-width="5" stroke-linecap="round"/>
<path d="M260.154 141.727H211.938" stroke="black" stroke-width="5" stroke-linecap="round"/>
<path d="M218.542 145.473C210.329 139.697 196.397 144.267 201.25 166.103C204.276 179.719 218.11 181.645 220.704 173.118" stroke="black" stroke-width="5" stroke-linecap="round"/>
<path d="M233.854 261.537C111.126 261.537 110.774 413.572 48.2942 474.858" stroke="black" stroke-width="5" stroke-linecap="round"/>
<path d="M345.099 374.413C322.134 380.861 282.439 377.201 266.467 374.279C265.766 374.151 265.147 374.76 265.269 375.461C268.13 391.944 277.45 471.201 275.616 542.698C275.604 543.184 275.938 543.607 276.417 543.692C284.562 545.133 306.727 546.634 318.906 544.603C319.276 544.542 319.569 544.274 319.677 543.916L324.826 526.96C332.748 509.001 340.887 445.88 346.386 375.47C346.441 374.767 345.778 374.222 345.099 374.413Z" fill="#A0A0A0"/>
<path d="M350.332 252.771C354.863 302.379 343.5 477 320.5 543.5" stroke="black" stroke-width="5" stroke-linecap="round"/>
<path d="M244.082 287.837C255.785 330.74 281.245 452.681 275.5 545.5" stroke="black" stroke-width="5" stroke-linecap="round"/>
<path d="M248.465 279.07C258.788 302.818 291.574 342.632 305.448 356.509" stroke="black" stroke-width="5" stroke-linecap="round"/>
<path d="M315.676 356.508C324.23 338.331 342.927 297.687 349.281 280.531" stroke="black" stroke-width="5" stroke-linecap="round"/>
<path d="M319.02 363.083C319.02 367.92 315.4 371.542 311.292 371.542C307.184 371.542 303.564 367.92 303.564 363.083C303.564 358.247 307.184 354.625 311.292 354.625C315.4 354.625 319.02 358.247 319.02 363.083Z" stroke="black" stroke-width="5"/>
<path d="M183.141 530.379C183.141 531.177 197.372 544.211 199.875 551.625C200.802 554.372 200.12 556.348 196.506 556.644C185.814 557.519 173.116 541.688 168.104 533.662" stroke="black" stroke-width="5" stroke-linecap="round"/>
<path d="M198.78 521.613C203.911 529.515 212.86 541.693 220.704 548.601C219.988 553.91 214.606 561.981 198.806 551.786C196.399 544.592 182.715 531.945 182.715 531.17" stroke="black" stroke-width="5" stroke-linecap="round"/>
<path d="M212.924 514.308C222.892 524.689 240.979 546.931 233.585 552.843C232.274 553.891 230.602 553.993 228.691 553.379C226.415 552.647 223.799 550.901 221.049 548.529C213.084 541.662 203.997 529.554 198.787 521.698" stroke="black" stroke-width="5" stroke-linecap="round"/>
<path d="M133.038 533.947C149.67 513.49 201.375 476.411 231.747 503.261C243.86 515.134 258.956 536.592 250.278 545.36C245.939 548.647 236.547 544.264 230.49 535.496" stroke="black" stroke-width="5" stroke-linecap="round"/>
<path d="M404.803 368.197C399.87 390.484 387.997 438.927 379.964 454.402" stroke="black" stroke-width="5" stroke-linecap="round"/>
<path d="M404.803 432.486C413.171 411.681 429.204 366.189 426.393 350.664" stroke="black" stroke-width="5" stroke-linecap="round"/>
<path d="M360.97 257.885C371.441 259.102 394.429 262.999 402.611 268.843" stroke="black" stroke-width="5" stroke-linecap="round"/>
</svg>
