<svg xmlns="http://www.w3.org/2000/svg" xmlns:xlink="http://www.w3.org/1999/xlink" width="500" zoomAndPan="magnify" viewBox="0 0 375 374.999991" height="500" preserveAspectRatio="xMidYMid meet" version="1.0"><defs><g/><clipPath id="ba1cff8ebf"><path d="M 7.359375 28.101562 L 345.335938 28.101562 L 345.335938 347.953125 L 7.359375 347.953125 Z M 7.359375 28.101562 " clip-rule="nonzero"/></clipPath><clipPath id="ae24060240"><path d="M 38.453125 43.863281 L 319.175781 43.863281 L 319.175781 318.429688 L 38.453125 318.429688 Z M 38.453125 43.863281 " clip-rule="nonzero"/></clipPath><clipPath id="119505b019"><path d="M 38.453125 43.863281 L 319.171875 43.863281 L 319.171875 318.425781 L 38.453125 318.425781 Z M 38.453125 43.863281 " clip-rule="nonzero"/></clipPath></defs><g clip-path="url(#ba1cff8ebf)"><path fill="#f6fb7a" d="M 7.359375 28.101562 L 345.957031 28.101562 L 345.957031 347.953125 L 7.359375 347.953125 Z M 7.359375 28.101562 " fill-opacity="1" fill-rule="nonzero"/></g><g clip-path="url(#ae24060240)"><path fill="#88d66c" d="M 38.453125 43.863281 L 319.453125 43.863281 L 319.453125 318.429688 L 38.453125 318.429688 Z M 38.453125 43.863281 " fill-opacity="1" fill-rule="nonzero"/></g><g clip-path="url(#119505b019)"><path stroke-linecap="butt" transform="matrix(0.870243, 0, 0, 0.870243, 38.453527, 43.862755)" fill="none" stroke-linejoin="miter" d="M -0.000462233 0.000605038 L 322.574619 0.000605038 L 322.574619 315.501514 L -0.000462233 315.501514 Z M -0.000462233 0.000605038 " stroke="#000000" stroke-width="8.618281" stroke-opacity="1" stroke-miterlimit="4"/></g><g fill="#000000" fill-opacity="1"><g transform="translate(173.973222, 213.29389)"><g><path d="M 43 1.703125 C 37.332031 1.703125 32.332031 1.109375 28 -0.078125 C 23.664062 -1.273438 20.039062 -2.9375 17.125 -5.0625 C 14.207031 -7.1875 12.007812 -9.765625 10.53125 -12.796875 C 9.0625 -15.828125 8.328125 -19.15625 8.328125 -22.78125 C 8.328125 -26.289062 9.414062 -29.117188 11.59375 -31.265625 C 13.78125 -33.421875 16.882812 -34.5 20.90625 -34.5 C 21.070312 -30.875 21.625 -27.390625 22.5625 -24.046875 C 23.5 -20.703125 24.898438 -17.753906 26.765625 -15.203125 C 28.640625 -12.660156 31.019531 -10.625 33.90625 -9.09375 C 36.800781 -7.5625 40.285156 -6.796875 44.359375 -6.796875 C 52.179688 -6.796875 58.285156 -8.675781 62.671875 -12.4375 C 67.066406 -16.207031 69.265625 -21.632812 69.265625 -28.71875 C 69.265625 -31.894531 68.8125 -34.703125 67.90625 -37.140625 C 67 -39.578125 65.492188 -41.828125 63.390625 -43.890625 C 61.296875 -45.960938 58.535156 -47.945312 55.109375 -49.84375 C 51.679688 -51.738281 47.421875 -53.734375 42.328125 -55.828125 C 36.941406 -58.046875 32.238281 -60.414062 28.21875 -62.9375 C 24.195312 -65.457031 20.851562 -68.257812 18.1875 -71.34375 C 15.519531 -74.425781 13.535156 -77.863281 12.234375 -81.65625 C 10.929688 -85.457031 10.28125 -89.738281 10.28125 -94.5 C 10.28125 -99.488281 11.226562 -103.9375 13.125 -107.84375 C 15.03125 -111.75 17.679688 -115.046875 21.078125 -117.734375 C 24.472656 -120.429688 28.492188 -122.488281 33.140625 -123.90625 C 37.785156 -125.320312 42.859375 -126.03125 48.359375 -126.03125 C 53.566406 -126.03125 58.179688 -125.488281 62.203125 -124.40625 C 66.222656 -123.332031 69.625 -121.890625 72.40625 -120.078125 C 75.1875 -118.265625 77.296875 -116.179688 78.734375 -113.828125 C 80.179688 -111.484375 80.90625 -109.035156 80.90625 -106.484375 C 80.90625 -102.742188 79.671875 -99.925781 77.203125 -98.03125 C 74.742188 -96.132812 71.414062 -95.1875 67.21875 -95.1875 C 67.21875 -97.90625 66.890625 -100.582031 66.234375 -103.21875 C 65.585938 -105.851562 64.5 -108.203125 62.96875 -110.265625 C 61.4375 -112.335938 59.425781 -114.023438 56.9375 -115.328125 C 54.445312 -116.628906 51.359375 -117.28125 47.671875 -117.28125 C 44.328125 -117.28125 41.335938 -116.8125 38.703125 -115.875 C 36.078125 -114.9375 33.851562 -113.601562 32.03125 -111.875 C 30.21875 -110.15625 28.832031 -108.078125 27.875 -105.640625 C 26.914062 -103.203125 26.4375 -100.476562 26.4375 -97.46875 C 26.4375 -94.019531 26.890625 -90.976562 27.796875 -88.34375 C 28.703125 -85.707031 30.210938 -83.328125 32.328125 -81.203125 C 34.453125 -79.078125 37.242188 -77.066406 40.703125 -75.171875 C 44.160156 -73.273438 48.410156 -71.304688 53.453125 -69.265625 C 58.554688 -67.171875 63.101562 -64.960938 67.09375 -62.640625 C 71.09375 -60.316406 74.476562 -57.722656 77.25 -54.859375 C 80.03125 -51.992188 82.15625 -48.789062 83.625 -45.25 C 85.09375 -41.707031 85.828125 -37.703125 85.828125 -33.234375 C 85.828125 -27.734375 84.820312 -22.816406 82.8125 -18.484375 C 80.800781 -14.148438 77.925781 -10.476562 74.1875 -7.46875 C 70.445312 -4.46875 65.941406 -2.1875 60.671875 -0.625 C 55.410156 0.925781 49.519531 1.703125 43 1.703125 Z M 43 1.703125 "/></g></g></g><g fill="#000000" fill-opacity="1"><g transform="translate(51.123162, 184.781378)"><g><path d="M 96.453125 -21.25 C 99.398438 -16.601562 102.257812 -13.117188 105.03125 -10.796875 C 107.8125 -8.472656 111.046875 -7.3125 114.734375 -7.3125 L 115.234375 -7.3125 L 115.234375 0 L 112.78125 0 C 107.332031 0 102.863281 -0.195312 99.375 -0.59375 C 95.894531 -0.988281 92.9375 -1.753906 90.5 -2.890625 C 88.070312 -4.023438 85.992188 -5.609375 84.265625 -7.640625 C 82.535156 -9.679688 80.675781 -12.347656 78.6875 -15.640625 L 55.15625 -54.8125 L 40.703125 -54.8125 L 40.703125 -18.953125 C 40.703125 -16.398438 41.082031 -14.34375 41.84375 -12.78125 C 42.613281 -11.226562 43.648438 -10.054688 44.953125 -9.265625 C 46.253906 -8.472656 47.769531 -7.945312 49.5 -7.6875 C 51.226562 -7.4375 53.054688 -7.3125 54.984375 -7.3125 L 57.28125 -7.3125 L 57.28125 0 L 6.625 0 L 6.625 -7.3125 L 8.84375 -7.3125 C 10.769531 -7.3125 12.59375 -7.4375 14.3125 -7.6875 C 16.039062 -7.945312 17.554688 -8.472656 18.859375 -9.265625 C 20.171875 -10.054688 21.207031 -11.226562 21.96875 -12.78125 C 22.726562 -14.34375 23.109375 -16.398438 23.109375 -18.953125 L 23.109375 -105.125 C 23.109375 -107.675781 22.726562 -109.726562 21.96875 -111.28125 C 21.207031 -112.84375 20.171875 -114.046875 18.859375 -114.890625 C 17.554688 -115.742188 16.039062 -116.296875 14.3125 -116.546875 C 12.59375 -116.804688 10.769531 -116.9375 8.84375 -116.9375 L 6.625 -116.9375 L 6.625 -124.25 L 53.453125 -124.25 C 68.523438 -124.25 79.742188 -121.457031 87.109375 -115.875 C 94.472656 -110.289062 98.15625 -101.890625 98.15625 -90.671875 C 98.15625 -86.023438 97.40625 -81.957031 95.90625 -78.46875 C 94.40625 -74.988281 92.4375 -71.972656 90 -69.421875 C 87.5625 -66.878906 84.8125 -64.757812 81.75 -63.0625 C 78.695312 -61.363281 75.640625 -60.003906 72.578125 -58.984375 Z M 40.703125 -62.96875 L 52.9375 -62.96875 C 58.039062 -62.96875 62.289062 -63.535156 65.6875 -64.671875 C 69.09375 -65.804688 71.8125 -67.503906 73.84375 -69.765625 C 75.882812 -72.035156 77.34375 -74.867188 78.21875 -78.265625 C 79.101562 -81.671875 79.546875 -85.640625 79.546875 -90.171875 C 79.546875 -94.816406 79.0625 -98.765625 78.09375 -102.015625 C 77.132812 -105.273438 75.578125 -107.9375 73.421875 -110 C 71.273438 -112.070312 68.484375 -113.578125 65.046875 -114.515625 C 61.617188 -115.453125 57.441406 -115.921875 52.515625 -115.921875 L 40.703125 -115.921875 Z M 40.703125 -62.96875 "/></g></g></g><g fill="#000000" fill-opacity="1"><g transform="translate(41.836832, 300.07953)"><g><path d="M 110.3125 0 L 110.3125 -7.3125 L 110.90625 -7.3125 C 112.769531 -7.3125 114.453125 -7.4375 115.953125 -7.6875 C 117.460938 -7.945312 118.738281 -8.457031 119.78125 -9.21875 C 120.832031 -9.988281 121.664062 -11.09375 122.28125 -12.53125 C 122.90625 -13.976562 123.273438 -15.890625 123.390625 -18.265625 L 123.390625 -111.25 L 83.546875 0 L 74.109375 0 L 33.734375 -110.90625 L 33.734375 -19.796875 C 33.734375 -17.078125 34.015625 -14.894531 34.578125 -13.25 C 35.148438 -11.613281 35.988281 -10.351562 37.09375 -9.46875 C 38.195312 -8.59375 39.523438 -8.015625 41.078125 -7.734375 C 42.640625 -7.453125 44.382812 -7.3125 46.3125 -7.3125 L 46.828125 -7.3125 L 46.828125 0 L 6.625 0 L 6.625 -7.3125 L 8.84375 -7.3125 C 10.769531 -7.3125 12.59375 -7.4375 14.3125 -7.6875 C 16.039062 -7.945312 17.554688 -8.472656 18.859375 -9.265625 C 20.171875 -10.054688 21.207031 -11.226562 21.96875 -12.78125 C 22.726562 -14.34375 23.109375 -16.398438 23.109375 -18.953125 L 23.109375 -105.125 C 23.109375 -107.675781 22.726562 -109.726562 21.96875 -111.28125 C 21.207031 -112.84375 20.171875 -114.046875 18.859375 -114.890625 C 17.554688 -115.742188 16.039062 -116.296875 14.3125 -116.546875 C 12.59375 -116.804688 10.769531 -116.9375 8.84375 -116.9375 L 6.625 -116.9375 L 6.625 -124.25 L 46.3125 -124.25 L 82.34375 -24.734375 L 118.046875 -124.25 L 156.625 -124.25 L 156.625 -116.9375 L 154.421875 -116.9375 C 152.429688 -116.9375 150.570312 -116.796875 148.84375 -116.515625 C 147.113281 -116.234375 145.597656 -115.648438 144.296875 -114.765625 C 142.992188 -113.890625 141.972656 -112.628906 141.234375 -110.984375 C 140.503906 -109.347656 140.140625 -107.164062 140.140625 -104.4375 L 140.140625 -19.796875 C 140.140625 -17.078125 140.503906 -14.894531 141.234375 -13.25 C 141.972656 -11.613281 142.992188 -10.351562 144.296875 -9.46875 C 145.597656 -8.59375 147.113281 -8.015625 148.84375 -7.734375 C 150.570312 -7.453125 152.429688 -7.3125 154.421875 -7.3125 L 156.625 -7.3125 L 156.625 0 Z M 110.3125 0 "/></g></g></g></svg>